<svg xmlns="http://www.w3.org/2000/svg" xmlns:xlink="http://www.w3.org/1999/xlink" width="1080" zoomAndPan="magnify" viewBox="0 0 810 809.999993" height="1080" preserveAspectRatio="xMidYMid meet" version="1.2"><defs><clipPath id="11ef33ca82"><path d="M 81 81 L 324 81 L 324 324 L 81 324 Z M 81 81 "/></clipPath><clipPath id="1e42eabac1"><path d="M 202.5 81 C 135.398438 81 81 135.398438 81 202.5 C 81 269.601562 135.398438 324 202.5 324 C 269.601562 324 324 269.601562 324 202.5 C 324 135.398438 269.601562 81 202.5 81 Z M 202.5 81 "/></clipPath><clipPath id="18cd04b9ce"><path d="M 121.5 0 C 54.398438 0 0 54.398438 0 121.5 C 0 188.601562 54.398438 243 121.5 243 C 188.601562 243 243 188.601562 243 121.5 C 243 54.398438 188.601562 0 121.5 0 Z M 121.5 0 "/></clipPath><clipPath id="1f9c3ec126"><rect x="0" width="243" y="0" height="243"/></clipPath><clipPath id="14c05842dc"><path d="M 81 486 L 324 486 L 324 729 L 81 729 Z M 81 486 "/></clipPath><clipPath id="58275d8d83"><path d="M 202.5 486 C 135.398438 486 81 540.398438 81 607.5 C 81 674.601562 135.398438 729 202.5 729 C 269.601562 729 324 674.601562 324 607.5 C 324 540.398438 269.601562 486 202.5 486 Z M 202.5 486 "/></clipPath><clipPath id="a1cb3c1386"><path d="M 121.5 0 C 54.398438 0 0 54.398438 0 121.5 C 0 188.601562 54.398438 243 121.5 243 C 188.601562 243 243 188.601562 243 121.5 C 243 54.398438 188.601562 0 121.5 0 Z M 121.5 0 "/></clipPath><clipPath id="67f9686b9d"><rect x="0" width="243" y="0" height="243"/></clipPath><clipPath id="66129b404c"><path d="M 486 283.5 L 729 283.5 L 729 526.5 L 486 526.5 Z M 486 283.5 "/></clipPath><clipPath id="d0e5b79c6d"><path d="M 607.5 283.5 C 540.398438 283.5 486 337.898438 486 405 C 486 472.101562 540.398438 526.5 607.5 526.5 C 674.601562 526.5 729 472.101562 729 405 C 729 337.898438 674.601562 283.5 607.5 283.5 Z M 607.5 283.5 "/></clipPath><clipPath id="d4e374c22d"><path d="M 0 0.5 L 243 0.5 L 243 243.5 L 0 243.5 Z M 0 0.5 "/></clipPath><clipPath id="3e0bd97c9b"><path d="M 121.5 0.5 C 54.398438 0.5 0 54.898438 0 122 C 0 189.101562 54.398438 243.5 121.5 243.5 C 188.601562 243.5 243 189.101562 243 122 C 243 54.898438 188.601562 0.5 121.5 0.5 Z M 121.5 0.5 "/></clipPath><clipPath id="4448b6a22a"><rect x="0" width="243" y="0" height="244"/></clipPath></defs><g id="610a288be9"><path style="fill:none;stroke-width:25;stroke-linecap:butt;stroke-linejoin:miter;stroke:#1b1f23;stroke-opacity:1;stroke-miterlimit:4;" d="M -0.00000493333 12.499991 L 216.000006 12.499991 " transform="matrix(0,0.75,-0.75,0,211.874993,324.000004)"/><g clip-rule="nonzero" clip-path="url(#11ef33ca82)"><g clip-rule="nonzero" clip-path="url(#1e42eabac1)"><g transform="matrix(1,0,0,1,81,81)"><g clip-path="url(#1f9c3ec126)"><g clip-rule="nonzero" clip-path="url(#18cd04b9ce)"><rect x="0" width="243" height="243" y="0" style="fill:#1abc9c;fill-opacity:1;stroke:none;"/></g></g></g></g></g><g clip-rule="nonzero" clip-path="url(#14c05842dc)"><g clip-rule="nonzero" clip-path="url(#58275d8d83)"><g transform="matrix(1,0,0,1,81,486)"><g clip-path="url(#67f9686b9d)"><g clip-rule="nonzero" clip-path="url(#a1cb3c1386)"><rect x="0" width="243" height="243" y="0" style="fill:#1abc9c;fill-opacity:1;stroke:none;"/></g></g></g></g></g><g clip-rule="nonzero" clip-path="url(#66129b404c)"><g clip-rule="nonzero" clip-path="url(#d0e5b79c6d)"><g transform="matrix(1,0,0,1,486,283)"><g clip-path="url(#4448b6a22a)"><g clip-rule="nonzero" clip-path="url(#d4e374c22d)"><g clip-rule="nonzero" clip-path="url(#3e0bd97c9b)"><path style=" stroke:none;fill-rule:nonzero;fill:#e67e73;fill-opacity:1;" d="M 0 0.5 L 243 0.5 L 243 243.5 L 0 243.5 Z M 0 0.5 "/></g></g></g></g></g></g><path style="fill:none;stroke-width:25;stroke-linecap:butt;stroke-linejoin:miter;stroke:#1b1f23;stroke-opacity:1;stroke-miterlimit:4;" d="M -0.000292529 12.502115 L 279.668934 12.497458 " transform="matrix(0.67082,0.33541,-0.33541,0.67082,315.388845,248.464988)"/><path style="fill:none;stroke-width:25;stroke-linecap:butt;stroke-linejoin:miter;stroke:#1b1f23;stroke-opacity:1;stroke-miterlimit:4;" d="M -0.000257056 12.497842 L 279.66897 12.502498 " transform="matrix(0.67082,-0.33541,0.33541,0.67082,307.003582,544.764545)"/></g></svg>